<svg xmlns="http://www.w3.org/2000/svg" xmlns:xlink="http://www.w3.org/1999/xlink" xml:space="preserve" version="1.1" style="shape-rendering:geometricPrecision;text-rendering:geometricPrecision;image-rendering:optimizeQuality;" viewBox="0 0 847 1058.75" x="0px" y="0px" fill-rule="evenodd" clip-rule="evenodd"><defs><style type="text/css">
   
    .fil2 {fill:black}
    .fil1 {fill:black}
    .fil0 {fill:black}
   
  </style></defs><g><path class="fil0" d="M-3047 1175l66 0 0 0 246 0c21,0 38,17 38,38l0 178c0,21 -17,38 -38,38l-276 0c-25,7 -58,4 -91,-1 -21,-4 -61,8 -66,6 -96,-41 10,-5 9,-19 0,-40 66,-17 40,-39 -1,0 -12,-9 -38,6 -20,11 -66,0 -67,1 -10,1 -69,14 -9,-7 9,-3 17,-7 24,-9 74,-14 20,-25 -16,-16 -4,1 -13,11 -22,6 -1,-1 -36,18 -49,-2 -18,-26 -68,-2 -74,-4 -28,-12 -70,-39 -79,-38 -53,5 10,-12 26,-8 5,2 53,37 83,14 28,-21 75,0 76,-2 4,-15 38,-11 52,-14 28,-4 -2,-22 -35,-4 -9,5 -21,-4 -32,-3 -12,2 -22,12 -39,-4 -15,-15 -51,-24 -51,-24 64,-15 59,4 95,-16 6,-3 40,-22 66,-2 50,37 95,-30 25,-10 -42,12 10,-24 44,-11 25,8 33,0 33,0 31,0 -16,-15 -16,-15 -18,-19 -85,11 -111,-3 -26,-14 56,-14 65,-22 25,-22 67,-17 110,-12 4,-1 7,-2 11,-2zm121 43l127 79 -123 83 -4 -1 0 -161z"/><path class="fil0" d="M-3141 -898c-5,0 -10,1 -14,2 -12,2 -32,7 -37,-10 -1,-4 -1,-8 0,-11 -13,1 -25,-3 -34,-16 -9,-14 -50,8 -65,2 -17,-8 -59,-34 -69,-36 -13,1 -36,5 -39,-14 -3,-26 53,-30 67,-26 17,5 48,31 67,16 4,-3 8,-5 12,-7 -2,-1 -3,-2 -5,-2 -6,-4 -13,-6 -20,-9 -2,-1 -5,-1 -7,-2 -16,-5 -21,-29 -2,-33 29,-7 41,-5 67,-6 8,-1 15,-4 22,-8 12,-6 24,-11 37,-12 -7,-5 -12,-12 -11,-20 4,-28 59,-21 74,-27 31,-27 80,-21 118,-17 4,-1 8,-1 12,-1l306 0c29,0 54,24 54,54l0 174c0,30 -25,54 -54,54l-269 0c-29,8 -65,3 -94,-2 -18,-3 -55,11 -68,5 -13,-5 -56,-18 -48,-40 1,-3 3,-6 5,-8 -2,0 -4,0 -5,0zm166 -215l62 0 1 0 233 0c20,0 36,16 36,36l0 169c0,20 -16,36 -36,36l-262 0c-23,7 -55,4 -87,-2 -19,-3 -57,8 -62,6 -91,-39 9,-4 9,-18 0,-37 62,-15 38,-36 -1,-1 -12,-9 -36,5 -19,11 -64,1 -65,1 -9,1 -65,13 -8,-7 9,-3 16,-7 23,-8 70,-13 19,-23 -15,-16 -4,1 -13,11 -21,6 -1,-1 -34,17 -47,-1 -17,-25 -64,-2 -70,-5 -26,-11 -66,-37 -75,-36 -50,5 9,-11 25,-7 5,2 50,35 79,13 26,-20 71,1 72,-2 3,-14 36,-10 49,-13 26,-4 -2,-21 -33,-4 -9,5 -20,-4 -30,-2 -12,2 -21,11 -37,-4 -15,-14 -49,-23 -49,-24 61,-13 56,5 91,-15 5,-3 37,-20 62,-2 47,36 90,-28 24,-9 -40,12 9,-22 42,-10 23,8 31,0 31,0 29,0 -15,-14 -16,-14 -16,-18 -80,10 -105,-3 -24,-13 53,-14 62,-21 24,-21 64,-16 104,-12 4,-1 7,-1 11,-1zm114 41l122 74 -118 79 -4 0 0 -153zm28 26l0 100 78 -52 -78 -48z"/><path class="fil0" d="M-3075 745c0,-1 0,-2 0,-3 -5,0 -10,0 -16,0 6,1 11,2 16,3zm227 -263c81,0 147,67 147,149 0,81 -66,148 -147,148 -15,0 -30,-3 -44,-7 -28,7 -65,4 -102,-3 -23,-4 -69,10 -74,7 -110,-46 10,-5 10,-21 0,-45 75,-19 45,-44 -1,-1 -14,-10 -43,6 -22,13 -75,1 -77,1 -10,2 -78,16 -10,-7 11,-4 20,-9 27,-10 84,-16 23,-28 -18,-19 -4,1 -14,12 -24,7 -2,-1 -41,20 -56,-2 -20,-30 -78,-2 -84,-5 -32,-14 -79,-45 -90,-43 -60,6 11,-14 29,-9 7,2 61,42 95,16 32,-24 85,0 86,-3 4,-16 44,-12 59,-15 32,-5 -2,-25 -39,-5 -10,6 -24,-5 -37,-3 -13,3 -25,14 -43,-4 -18,-18 -59,-28 -59,-29 73,-16 67,5 108,-18 7,-3 45,-24 75,-2 57,43 108,-34 28,-11 -47,14 12,-27 51,-13 27,10 37,1 37,1 35,0 -18,-17 -18,-17 -20,-22 -96,12 -127,-4 -29,-15 64,-16 74,-25 39,-33 113,-12 178,-9 11,-4 23,-6 35,-6 -1,-1 0,-1 3,-1l5 0zm-23 223l0 -132 103 64 -101 68 -2 0zm-245 35c-6,-1 -11,-2 -16,-3 -6,1 -13,2 -19,3 -13,2 -34,8 -40,-10 -1,-6 0,-11 4,-15 -16,2 -32,0 -43,-17 -13,-19 -61,8 -77,1 -18,-8 -70,-39 -82,-42 -86,9 -25,-58 33,-40 20,6 56,37 80,18 6,-5 12,-8 18,-10 -3,-2 -7,-4 -10,-6 -8,-4 -16,-7 -24,-10 -3,-1 -5,-2 -8,-3 -16,-5 -22,-28 -2,-32 32,-8 46,-6 77,-7 9,-1 18,-5 26,-10 17,-9 36,-15 54,-14 -3,-1 -5,-2 -8,-3 -8,-5 -15,-12 -14,-23 4,-29 68,-22 85,-29 45,-39 131,-17 187,-14 12,-3 24,-5 36,-6 2,0 3,0 4,0l5 0c91,0 164,74 164,165 0,90 -73,164 -164,164 -15,0 -30,-2 -45,-6 -32,7 -72,2 -104,-3 -21,-4 -64,12 -78,6 -13,-6 -63,-20 -55,-43 3,-8 9,-11 16,-11zm-11 -195c3,1 5,2 8,3 1,-1 2,-1 3,-2 -4,0 -8,0 -11,-1zm270 132l57 -38 -57 -35 0 73z"/><path class="fil0" d="M-3408 -437c-8,5 -17,7 -26,6 -14,6 -40,3 -48,3 -11,0 -56,5 -56,-15 0,-9 9,-13 20,-14 2,-5 6,-7 12,-8 1,-4 4,-6 7,-8 -21,1 -44,-2 -63,-5 -17,-3 -53,9 -64,5 -11,-5 -52,-17 -45,-35 2,-7 8,-9 15,-9 -5,-1 -11,-2 -16,-3 -5,1 -10,2 -15,3 -10,1 -28,6 -32,-8 -2,-5 0,-10 3,-13 -13,2 -27,0 -36,-14 -10,-15 -50,7 -63,1 -15,-6 -58,-33 -67,-35 -11,2 -32,5 -34,-11 -3,-21 48,-25 61,-21 16,5 45,30 66,15 5,-4 10,-7 15,-9 -3,-2 -6,-3 -9,-5 -6,-3 -13,-6 -20,-8 -2,-1 -4,-1 -7,-2 -13,-4 -17,-24 -1,-27 27,-6 38,-4 63,-5 8,-1 15,-4 22,-8 20,-11 45,-17 66,-7 1,-2 3,-4 6,-6 -14,4 -31,-2 -45,-5 -10,-2 -23,-6 -23,-19 1,-20 43,-20 57,-18 12,3 10,-4 22,-6 13,-2 12,-1 24,1 3,1 11,2 16,3 3,-5 7,-8 13,-10 24,-4 46,-7 71,-5 3,-1 7,-1 11,-1l291 0c27,0 49,22 49,49l0 166c0,27 -22,49 -49,49l-27 0c-1,4 -2,8 -4,11 -10,23 -35,44 -60,34 -15,5 -37,3 -45,3 -9,0 -46,4 -55,-9zm137 -83c-15,-7 -35,5 -45,26 -10,22 -6,45 10,52 15,7 35,-5 45,-27 10,-21 6,-44 -10,-51zm-76 68c-15,0 -27,1 -27,2 0,1 12,2 27,2 14,0 26,-1 26,-2 0,-1 -12,-2 -26,-2zm6 -6c-11,0 -20,0 -20,1 0,1 9,2 20,2 11,0 20,-1 20,-2 0,-1 -9,-1 -20,-1zm-13 15c-24,0 -43,1 -43,1 0,1 19,2 43,2 24,0 44,-1 44,-2 0,0 -20,-1 -44,-1zm-121 -18c-11,0 -19,1 -19,2 0,1 8,1 19,1 10,0 19,0 19,-1 0,-1 -9,-2 -19,-2zm-6 9c-14,0 -26,1 -26,2 0,1 12,2 26,2 15,0 27,-1 27,-2 0,-1 -12,-2 -27,-2zm-2 9c-24,0 -43,1 -43,2 0,1 19,1 43,1 24,0 44,0 44,-1 0,-1 -20,-2 -44,-2zm-26 -282l61 0 0 0 230 0c19,0 35,16 35,35l0 166c0,20 -16,36 -35,36l-29 0c1,-16 -4,-31 -19,-38 -23,-11 -47,10 -56,30 -1,3 -2,5 -3,8l-56 0c2,-17 -3,-35 -19,-43 -23,-10 -47,11 -56,31 -2,3 -3,8 -4,12l-16 0c-23,6 -54,3 -85,-2 -19,-3 -56,8 -61,6 -90,-38 9,-4 9,-18 -1,-36 136,-26 37,-35 -1,-1 -12,-9 -36,5 -18,10 -62,0 -63,0 -9,2 -64,13 -8,-6 9,-3 16,-7 22,-8 69,-13 19,-23 -15,-15 -3,0 -12,10 -20,5 -1,-1 -33,17 -46,-1 -16,-25 -63,-2 -69,-5 -25,-11 -65,-36 -74,-35 -49,5 10,-11 25,-7 5,2 50,34 78,13 26,-20 69,0 70,-2 4,-14 36,-8 49,-13 4,-1 6,-5 8,-4 74,17 -13,-16 -41,0 -8,5 -19,-4 -30,-2 -11,2 -20,11 -36,-4 -14,-14 -48,-23 -47,-23 59,-14 54,4 88,-15 6,-3 37,-20 62,-2 23,18 42,-3 53,2 30,11 22,8 30,11 46,17 100,12 22,2 -4,-1 -7,-4 -11,-6 -24,-10 -57,-22 -71,-18 -39,11 9,-22 41,-10 23,8 31,0 31,0 104,12 104,-1 59,-6 0,0 -3,5 -17,-8 -20,-16 -52,1 -57,0 -24,-3 -56,-23 -74,-6 -10,9 -28,3 -45,-1 -33,-7 12,-14 29,-11 18,3 19,-5 27,-6 12,-2 8,-2 20,1 40,8 22,-5 34,-7 21,-4 43,-8 69,-5 3,-1 6,-1 10,-1zm150 41l111 68 -107 72 -4 0 0 -140zm-45 161c-15,-7 -36,5 -46,27 -9,21 -5,44 10,51 16,7 36,-5 46,-26 10,-22 5,-45 -10,-52zm-9 19c-8,-3 -18,3 -23,14 -5,11 -3,23 5,26 8,4 18,-2 23,-13 5,-11 3,-23 -5,-27zm134 3c-8,-4 -19,2 -24,13 -5,11 -2,23 5,27 8,3 18,-3 24,-14 5,-11 2,-22 -5,-26z"/><path class="fil1" d="M-3025 121c77,0 140,62 140,139 0,77 -63,139 -140,139 -78,0 -140,-62 -140,-139 0,-77 62,-139 140,-139zm7 101l19 0 0 0 71 0c7,0 12,5 12,11l0 52c0,6 -5,11 -12,11l-80 0c-7,2 -16,1 -26,-1 -6,-1 -18,2 -19,2 -28,-12 3,-1 3,-6 0,-11 19,-4 11,-11 0,0 -3,-2 -11,2 -6,3 -19,0 -19,0 -3,0 -20,4 -3,-2 3,-1 5,-2 7,-2 21,-4 6,-8 -5,-5 -1,0 -3,3 -6,1 0,0 -10,6 -14,0 -5,-8 -20,-1 -22,-1 -8,-4 -20,-12 -23,-11 -15,1 3,-4 8,-2 1,0 15,10 24,4 8,-7 22,0 22,-1 1,-4 11,-3 15,-4 8,-1 0,-6 -10,-1 -3,1 -6,-1 -9,-1 -4,1 -7,4 -11,-1 -5,-5 -15,-7 -15,-7 18,-5 17,1 27,-5 2,-1 12,-6 19,-1 15,11 28,-8 8,-2 -13,3 2,-7 12,-4 7,3 10,1 10,1 9,0 -5,-5 -5,-5 -5,-5 -24,3 -32,-1 -7,-4 16,-4 19,-6 7,-6 19,-5 32,-4 1,0 2,0 3,0zm35 12l37 23 -36 24 -1 0 0 -47z"/><path class="fil2" d="M-3035 978c-6,0 -15,1 -18,1 -13,3 -36,17 -47,1 -8,-13 -31,0 -40,-1 -8,0 -16,-4 -23,-8 -4,-2 -21,-14 -24,-14 -4,0 -16,2 -17,-4 -1,-10 28,-11 34,-10 8,3 15,9 26,12 7,1 14,1 19,-3 5,-3 9,-5 14,-6 0,-1 -1,-2 -2,-4 -1,-3 -8,-6 -11,-7 -4,-2 -20,-4 -20,-10 0,-2 2,-4 4,-4 11,-3 21,-4 33,-2 3,1 12,3 16,1 2,0 3,-4 4,-6 2,-5 13,-8 18,-9 9,-2 18,-1 26,4 0,-8 24,-13 30,-13 4,0 8,0 12,2 3,1 8,2 12,2 -3,-1 -5,-2 -6,-3l-1 0 0 0c-7,-8 -48,7 -65,-1 -3,-2 -6,-4 -5,-8 1,-11 36,-9 43,-13 17,-15 47,-11 68,-9 3,0 5,0 7,0l186 0c15,0 27,12 27,27l0 106c0,15 -12,27 -27,27l-164 0c-19,0 -37,1 -55,-1 -10,-1 -35,5 -40,4 -6,-2 -12,-4 -18,-8 -3,-2 -11,-5 -8,-11 3,-7 21,1 28,0 1,-4 3,-8 6,-12 1,0 1,0 1,0 -12,6 -29,2 -41,0 -3,1 -6,2 -10,2 -4,1 -14,4 -16,-2 -2,-7 15,-11 19,-13 5,-1 10,-4 15,-5 1,0 6,-1 10,-2zm87 -108l39 0 1 0 146 0c12,0 22,10 22,23l0 106c0,12 -10,23 -22,23l-164 0c-16,0 -34,0 -55,-2 -12,-1 -36,5 -39,4 -7,-2 -13,-5 -16,-7 -24,-13 22,3 22,-4 0,-24 39,-10 23,-23 0,0 -7,-5 -22,3 -12,7 -40,1 -40,1 -6,1 -41,8 -6,-4 6,-2 11,-5 15,-5 44,-9 12,-15 -10,-10 -11,2 -33,16 -42,2 -10,-15 -39,-2 -44,-2 -18,-2 -41,-24 -47,-23 -31,3 6,-7 15,-4 4,1 32,22 50,8 17,-13 45,0 45,-1 2,-9 23,-7 31,-8 16,-3 -3,-17 -20,-4 -2,2 -1,0 0,-2 1,-5 1,-13 -20,1 -6,5 -17,11 -23,-2 -4,-11 -34,-14 -30,-15 35,-9 48,12 56,-9 2,-4 24,-13 40,-1 29,22 56,-18 14,-6 -25,7 6,-14 27,-7 14,5 19,1 19,1 18,0 -9,-9 -10,-9 -10,-12 -50,6 -66,-3 -15,-8 34,-8 39,-12 15,-13 40,-11 66,-8 2,0 4,-1 6,-1zm72 26l76 47 -74 49 -2 0 0 -96zm-210 52c2,1 4,1 6,2 2,-3 5,-5 9,-6 -1,-1 0,-2 0,-4 0,0 0,-1 0,-1 -4,2 -10,6 -12,7 -1,1 -2,2 -3,2zm33 -5c2,-1 4,-1 5,-1 -1,0 -3,0 -5,1zm19 -28c5,2 9,2 14,1 2,0 7,-2 8,-4 -3,-2 -13,1 -15,1 -2,1 -4,2 -7,2zm163 -11l0 81 62 -42 -62 -39z"/><path class="fil2" d="M-3199 -1464c-8,-2 -28,2 -33,4 -16,4 -45,21 -58,1 -12,-17 -42,3 -54,-1 -17,-4 -51,-30 -59,-29 -4,0 -18,3 -19,-4 -1,-9 31,-14 40,-10 10,3 19,12 33,15 9,2 19,2 27,-4 10,-8 24,-9 36,-7 7,1 15,3 21,4 7,-11 31,-8 41,-10 1,0 4,0 5,-1 -7,-3 -31,2 -36,4 -14,6 -21,0 -7,-10 2,-1 6,-3 7,-5 -1,-1 -3,-1 -4,0 -10,1 -31,27 -47,11 -3,-3 -8,-6 -12,-8 -6,-3 -11,-5 -17,-7 -2,0 -4,-1 -6,-2 -5,-1 -7,-7 -2,-9 12,-2 24,-3 36,0 4,1 12,4 16,4 7,0 14,-10 18,-14 10,-14 42,-13 56,-3 29,22 62,-12 17,1 -4,1 -13,4 -15,-2 -5,-11 35,-26 50,-18 2,0 5,1 7,2l0 -1c-11,-11 -63,0 -82,-3 -4,-1 -13,-2 -12,-8 0,-11 49,-12 59,-16l1 0c22,-19 118,-11 150,-12 57,0 103,46 103,103 0,57 -46,104 -103,104 -30,0 -68,-2 -98,-7 -13,-2 -46,7 -51,5 -5,-2 -10,-5 -15,-7 -4,-2 -20,-7 -18,-14 3,-9 31,0 40,-1 4,-9 10,-14 19,-17 3,-1 9,-2 13,-3 -1,-1 -2,-2 -3,-2 -5,-5 -19,1 -24,4 -15,9 -37,3 -53,1 -4,1 -8,2 -12,2 -4,1 -17,5 -19,-1 -2,-8 19,-13 23,-14 6,-2 12,-6 18,-7 4,-1 17,-4 23,-8zm157 -134c54,0 98,45 98,99 0,55 -44,99 -98,99 -27,0 -73,-2 -97,-6 -16,-3 -46,6 -50,5 -3,-1 -1,-1 -15,-7 -46,-20 22,-3 24,-8 10,-28 47,-12 28,-29 -1,0 -9,-7 -29,4 -15,9 -50,1 -51,1 -7,1 -52,11 -7,-5 7,-3 13,-6 18,-7 50,-12 24,-22 -12,-12 -14,4 -43,19 -54,3 -13,-20 -47,-1 -56,-3 -24,-6 -47,-30 -60,-29 -40,3 14,-11 20,-6 4,1 40,28 63,11 21,-17 57,0 58,-2 2,-11 29,-9 39,-10 21,-4 8,-19 -34,-6 0,0 -16,7 -2,-2 15,-10 5,-15 0,-14 -10,2 -31,25 -44,13 -12,-11 -39,-18 -39,-19 49,-11 46,23 72,-12 3,-3 30,-16 50,-1 38,28 73,-23 19,-8 -32,10 17,-22 35,-11 17,4 24,4 24,4 23,0 -13,-10 -13,-10 -13,-14 -61,-1 -84,-5 -37,-6 50,-12 49,-16 21,-18 110,-10 148,-11zm-16 150l1 -89 69 42 -70 47zm5 -8l57 -39 -57 -35 0 74z"/><path class="fil1" d="M-3090 -1900c67,0 121,53 121,117 0,65 -54,118 -121,118 -66,0 -120,-53 -120,-118 0,-64 54,-117 120,-117zm56 72c24,0 44,20 44,44 0,24 -20,44 -44,44 -12,0 -32,-1 -43,-3 -7,-1 -20,3 -22,2 -1,0 0,0 -7,-3 -20,-9 10,-1 11,-3 4,-13 21,-6 12,-13 0,0 -4,-3 -12,2 -7,3 -23,0 -23,0 -3,0 -23,5 -3,-2 3,-1 6,-3 8,-3 22,-6 11,-10 -5,-6 -6,2 -19,9 -24,2 -6,-9 -21,-1 -25,-2 -11,-2 -21,-13 -27,-13 -17,2 7,-5 9,-2 2,0 18,12 28,5 10,-8 25,0 26,-1 1,-5 13,-4 17,-5 9,-1 4,-8 -15,-2 0,0 -7,3 -1,-1 7,-4 3,-7 0,-6 -4,0 -14,11 -19,6 -6,-6 -18,-9 -17,-9 21,-5 20,10 32,-5 1,-2 13,-7 22,-1 16,13 32,-10 8,-3 -14,4 7,-10 15,-5 8,2 11,1 11,1 10,0 -6,-4 -6,-4 -6,-6 -27,0 -37,-2 -16,-3 22,-5 22,-7 9,-8 48,-4 65,-5zm-7 66l0 -39 31 19 -31 20z"/><path class="fil1" d="M-3069 1612l62 0 0 0 232 0c20,0 36,16 36,36l0 165c0,20 -16,35 -36,35l-37 0c3,-17 0,-36 -17,-44 -22,-10 -45,11 -54,30 -2,4 -3,9 -4,14l-86 0c3,-17 -1,-36 -17,-43 -23,-11 -45,10 -54,29 -2,5 -4,11 -5,17 -21,3 -46,0 -72,-4 -20,-4 -58,8 -62,6 -91,-38 9,-5 8,-18 0,-37 62,-15 38,-36 -1,0 -12,-8 -36,5 -18,11 -63,1 -64,1 -9,1 -64,13 -8,-6 9,-3 16,-7 22,-8 70,-13 19,-23 -15,-16 -17,5 -52,25 -66,4 -17,-24 -65,-1 -70,-4 -26,-11 -66,-36 -75,-35 -50,5 9,-11 25,-7 5,2 50,34 78,13 27,-20 71,0 72,-2 3,-14 36,-10 49,-13 26,-4 -7,-19 -42,-5 -18,7 15,-20 -2,-21 -12,0 -40,31 -56,16 -15,-14 -48,-23 -48,-23 60,-13 55,4 90,-14 5,-3 37,-21 62,-2 47,34 71,-6 23,-9 -54,-4 10,-22 42,-11 26,2 32,1 32,1 31,0 -16,-14 -16,-14 -17,-18 -80,10 -105,-3 -24,-13 53,-13 61,-21 24,-20 64,-16 105,-11 3,-1 6,-2 10,-2zm166 260c-11,0 -19,1 -19,2 0,1 8,1 19,1 10,0 19,0 19,-1 0,-1 -9,-2 -19,-2zm-161 0c-11,0 -20,1 -20,2 0,1 9,1 20,1 10,0 19,0 19,-1 0,-1 -9,-2 -19,-2zm-6 9c-14,0 -26,1 -26,2 0,1 12,2 26,2 15,0 27,-1 27,-2 0,-1 -12,-2 -27,-2zm-2 9c-24,0 -44,1 -44,2 0,1 20,2 44,2 24,0 44,-1 44,-2 0,-1 -20,-2 -44,-2zm79 -80c-15,-7 -36,5 -46,26 -9,22 -5,45 10,52 16,7 36,-4 46,-26 10,-22 5,-45 -10,-52zm-9 19c-7,-3 -18,3 -23,14 -5,11 -3,23 5,26 8,4 18,-2 23,-13 5,-11 3,-23 -5,-27zm94 52c-15,0 -27,1 -27,2 0,1 12,2 27,2 14,0 26,-1 26,-2 0,-1 -12,-2 -26,-2zm-2 9c-25,0 -44,1 -44,2 0,1 19,2 44,2 24,0 43,-1 43,-2 0,-1 -19,-2 -43,-2zm78 -80c-15,-7 -35,5 -45,26 -10,22 -6,45 10,52 15,7 35,-5 45,-26 10,-22 6,-45 -10,-52zm-8 19c-8,-3 -19,3 -24,14 -5,11 -2,22 5,26 8,4 19,-2 24,-13 5,-11 2,-23 -5,-27zm-115 -177l120 74 -120 76 0 -150z"/><path class="fil2" d="M-2820 2301c-1,5 -2,9 -4,12 -9,20 -33,43 -57,32 -17,-8 -21,-26 -19,-44l-99 0c-1,5 -2,9 -4,12 -9,21 -33,43 -57,32 -16,-7 -20,-24 -19,-41l-1 0c-26,3 -56,0 -82,-5 -17,-3 -63,9 -70,6 -5,-2 -48,-16 -44,-26 3,-10 44,6 51,2 0,-34 34,-27 47,-32 -1,-1 -3,-3 -3,-3 -8,-7 -27,2 -35,6 -20,11 -51,3 -72,1 -6,1 -12,2 -18,3 -5,1 -22,6 -24,-2 -3,-8 26,-15 30,-17 8,-3 18,-8 26,-9 4,-1 25,-5 33,-9 -10,-4 -39,-1 -48,1 -22,5 -61,29 -79,3 -17,-25 -65,1 -76,-3 -12,-5 -74,-40 -80,-39 -5,0 -26,4 -27,-4 -2,-12 47,-15 55,-13 14,4 26,16 47,20 12,3 26,3 36,-5 15,-11 33,-12 51,-10 8,1 20,5 28,7 9,-15 43,-12 57,-14 1,0 3,-1 4,-1 -10,-5 -39,1 -47,4 -27,11 -3,-21 -3,-23 -1,0 -2,0 -2,0 -12,0 -44,37 -65,17 -5,-5 -11,-9 -17,-12 -8,-4 -16,-7 -24,-9 -2,-1 -5,-2 -8,-3 -6,-2 -9,-9 -2,-10 29,-7 42,-5 69,-6 11,-1 20,-5 29,-10 23,-12 52,-18 74,-2 44,33 68,2 23,-1 -6,0 -28,-1 -28,-11 0,-18 61,-15 76,-10 9,0 24,2 34,1 -8,-3 -18,-6 -21,-8 -16,-16 -86,12 -116,-3 -38,-20 64,-27 68,-30 30,-25 82,-18 118,-14 4,-1 8,-1 12,-1l327 0c25,0 45,19 45,44l0 183c0,25 -20,44 -45,44l-44 0zm-283 -267l69 0 0 0 258 0c22,0 40,18 40,40l0 183c0,22 -18,40 -40,40l-41 0c3,-20 -1,-41 -19,-49 -25,-12 -50,11 -60,32 -2,5 -4,11 -5,17l-95 0c3,-19 -1,-41 -19,-49 -25,-11 -50,11 -60,33 -2,5 -4,12 -5,18 -24,3 -52,0 -81,-4 -22,-4 -63,8 -69,6 -100,-42 10,-4 10,-20 0,-40 69,-17 42,-39 -1,-1 -13,-9 -40,6 -21,11 -70,0 -71,0 -10,2 -72,15 -9,-7 10,-3 18,-7 25,-8 77,-15 21,-26 -17,-18 -19,5 -59,28 -74,5 -19,-27 -72,-2 -78,-5 -29,-12 -73,-40 -83,-39 -55,6 11,-12 28,-7 5,1 56,37 87,14 29,-22 79,0 79,-3 4,-15 40,-11 55,-13 29,-5 -8,-22 -46,-6 -21,8 17,-22 -3,-24 -13,0 -44,35 -62,18 -16,-15 -54,-25 -53,-25 67,-15 61,4 100,-17 5,-3 41,-22 68,-2 53,39 79,-6 27,-10 -61,-4 10,-24 46,-11 29,1 35,0 35,0 35,0 -18,-15 -18,-15 -18,-20 -88,11 -116,-4 -27,-14 59,-14 68,-22 26,-23 70,-18 116,-13 3,-1 7,-2 11,-2zm85 220c-17,-8 -40,5 -51,29 -11,24 -6,50 11,58 17,8 40,-6 51,-30 11,-24 6,-49 -11,-57zm-10 21c-9,-4 -20,3 -26,15 -5,12 -3,26 6,30 9,3 20,-3 26,-16 5,-12 3,-25 -6,-29zm189 -21c-17,-8 -40,5 -51,29 -11,24 -6,50 11,58 17,8 40,-6 51,-30 11,-24 6,-50 -11,-57zm-10 21c-8,-4 -20,3 -26,15 -5,12 -3,25 6,29 9,4 20,-2 26,-15 5,-12 3,-25 -6,-29zm-127 -196l134 81 -134 85 0 -166zm4 8l0 149 121 -76 -121 -73zm-58 192c-8,-3 -16,7 -19,13 -3,6 -5,20 3,23 8,4 16,-6 19,-12 3,-7 5,-20 -3,-24zm179 0c-8,-3 -16,7 -19,13 -3,6 -5,19 3,23 8,4 17,-6 19,-13 3,-6 5,-19 -3,-23z"/><path class="fil1" d="M-3816 1240l239 0c22,0 41,18 41,41l0 119c0,23 -19,41 -41,41l-239 0c-22,0 -41,-18 -41,-41l0 -119c0,-23 19,-41 41,-41zm129 54l22 0 1 0 84 0c8,0 13,6 13,13l0 61c0,7 -5,13 -13,13l-13 0c1,-7 0,-14 -7,-16 -8,-4 -16,3 -19,10 -1,2 -1,4 -2,6l-31 0c1,-7 0,-14 -7,-16 -8,-4 -16,3 -19,10 -1,2 -2,4 -2,7 -8,1 -17,0 -26,-2 -8,-1 -21,3 -23,2 -33,-14 3,-1 3,-6 0,-14 23,-6 14,-13 0,-1 -4,-3 -13,2 -7,3 -23,0 -24,0 -3,0 -23,5 -3,-2 4,-2 6,-3 9,-3 25,-5 7,-9 -6,-6 -6,1 -19,9 -24,1 -6,-9 -24,0 -26,-1 -9,-4 -24,-13 -27,-13 -18,2 3,-4 9,-2 2,0 18,12 29,4 9,-7 25,0 26,-1 1,-5 13,-3 18,-4 9,-2 -3,-7 -16,-2 -6,3 6,-7 0,-8 -5,0 -15,12 -21,6 -5,-5 -17,-8 -17,-8 22,-5 20,1 33,-6 1,-1 13,-7 22,0 17,12 26,-3 9,-4 -20,-1 3,-8 15,-3 10,0 12,0 12,0 11,0 -6,-5 -6,-5 -6,-7 -29,3 -39,-2 -8,-4 20,-4 23,-7 9,-7 23,-6 38,-4 1,0 2,-1 4,-1zm60 95c-4,0 -7,0 -7,1 0,0 3,0 7,0 4,0 7,0 7,0 0,-1 -3,-1 -7,-1zm-59 0c-3,0 -7,1 -7,1 0,0 4,0 7,0 4,0 7,0 7,0 0,0 -3,-1 -7,-1zm-2 4c-5,0 -9,0 -9,0 0,1 4,1 9,1 6,0 10,0 10,-1 0,0 -4,0 -10,0zm0 3c-9,0 -16,0 -16,1 0,0 7,0 16,0 9,0 16,0 16,0 0,-1 -7,-1 -16,-1zm29 -29c-6,-3 -13,1 -17,9 -4,8 -2,17 3,19 6,3 14,-2 17,-9 4,-8 2,-17 -3,-19zm-4 7c-2,-2 -6,0 -8,5 -2,4 -1,8 2,9 3,1 6,-1 8,-5 2,-4 1,-8 -2,-9zm34 19c-5,0 -9,0 -9,0 0,1 4,1 9,1 6,0 10,0 10,-1 0,0 -4,0 -10,0zm0 3c-9,0 -16,0 -16,0 0,1 7,1 16,1 9,0 16,0 16,-1 0,0 -7,0 -16,0zm29 -29c-6,-3 -14,1 -17,9 -4,8 -2,17 3,19 6,3 13,-2 17,-10 4,-7 2,-16 -3,-18zm-4 7c-3,-2 -6,0 -8,4 -2,5 -1,9 2,10 2,1 6,-1 8,-5 2,-4 1,-8 -2,-9zm-42 -65l44 27 -44 28 0 -55z"/><path class="fil1" d="M-3357 -149c23,0 42,19 42,43 0,23 -19,42 -42,42 -11,0 -31,-1 -42,-3 -6,-1 -19,3 -21,2 -1,0 0,0 -6,-3 -20,-8 9,-1 10,-3 4,-12 20,-5 12,-12 0,-1 -4,-3 -12,1 -7,4 -22,0 -22,0 -3,1 -22,5 -3,-2 3,-1 5,-2 8,-2 21,-6 10,-10 -5,-6 -6,2 -19,9 -23,2 -6,-9 -21,-1 -24,-2 -11,-2 -20,-13 -26,-12 -17,1 6,-5 8,-3 2,1 18,12 28,5 9,-7 24,0 24,-1 1,-5 12,-3 17,-4 9,-2 3,-8 -15,-3 0,0 -7,3 -1,0 7,-5 3,-7 0,-6 -4,0 -13,10 -18,5 -5,-5 -17,-8 -17,-8 21,-4 20,10 31,-5 1,-2 13,-7 21,-1 16,13 31,-9 8,-3 -13,4 7,-9 15,-5 7,2 10,2 10,2 10,0 -5,-4 -5,-4 -6,-6 -26,0 -36,-2 -16,-3 21,-5 21,-7 9,-8 47,-4 63,-5zm-7 64l0 -38 30 18 -30 20z"/><path class="fil1" d="M-3631 740c128,23 213,64 213,111 0,47 -85,88 -212,110 11,-9 18,-23 18,-39l0 -142c0,-16 -7,-30 -19,-40zm-401 156c-81,-4 -185,-41 -185,-46 0,-5 104,-43 184,-46l1 1c8,10 10,32 10,45 0,13 -2,35 -10,46zm122 154c83,-9 150,-42 185,-84l61 0c25,0 44,-20 44,-44l0 -142c0,-24 -19,-44 -44,-44l-62 0c-34,-36 -101,-65 -184,-73 -79,-8 -155,5 -205,32 16,0 33,0 50,2 55,5 103,20 139,39 -24,0 -44,20 -44,44l0 142c0,24 20,44 44,44l1 0c-37,23 -85,39 -140,45 -17,2 -34,3 -50,3 51,30 126,45 205,36zm-116 -250l49 0 0 101 -49 0 0 -1c7,-9 11,-28 11,-50 0,-21 -4,-40 -11,-50l0 0zm100 -49l262 0c16,0 29,13 29,29l0 142c0,16 -13,29 -29,29l-262 0c-16,0 -29,-13 -29,-29l0 -142c0,-16 13,-29 29,-29zm102 135l0 34 95 -68 -95 -69 0 35 0 68zm15 5l55 -39 -55 -40 0 79z"/><path class="fil2" d="M-3888 1757l-26 0 0 -2c-8,0 -16,-1 -24,-3 -7,-1 -64,-13 -64,-22 0,-10 57,-21 64,-23 8,-1 16,-2 24,-3l0 -1 26 0 0 -6c0,-9 6,-17 13,-21 -16,-7 -35,-11 -53,-13 -8,-1 -15,-1 -23,-1l-17 0 15 -8c29,-14 66,-18 98,-15 28,3 65,13 86,34l27 0c1,0 1,0 2,0l-1 -1 15 3c25,4 102,21 102,55 0,35 -77,51 -102,55l-14 3 0 -1c0,0 -1,0 -2,0l-27 0c-20,24 -56,36 -86,40 -32,3 -70,-1 -98,-18l-13 -8 15 1c8,0 15,-1 23,-1 18,-3 37,-7 54,-16 -8,-4 -14,-12 -14,-22l0 -6zm161 -78c59,10 99,29 99,51 0,22 -40,41 -98,51 5,-4 8,-11 8,-18l0 -66c0,-7 -3,-14 -9,-18zm-185 72c-38,-2 -86,-19 -86,-21 0,-2 48,-20 85,-22l1 1c3,5 4,15 4,21 0,6 -1,16 -4,21zm56 72c39,-5 70,-20 86,-40l28 0c11,0 20,-9 20,-20l0 -66c0,-11 -9,-20 -20,-20l-29 0c-16,-17 -47,-30 -85,-34 -37,-3 -71,3 -95,15 8,0 16,0 23,1 26,2 48,9 65,18 -12,0 -21,9 -21,20l0 66c0,11 9,20 21,20l0 0c-17,11 -39,19 -65,22 -7,0 -15,1 -23,1 24,14 59,21 95,17zm-54 -116l23 0 0 46 -23 0 0 0c4,-4 6,-13 6,-23 0,-10 -2,-19 -6,-23l0 0zm47 -23l121 0c8,0 14,6 14,13l0 66c0,8 -6,14 -14,14l-121 0c-8,0 -14,-6 -14,-14l0 -66c0,-7 6,-13 14,-13zm47 63l0 15 44 -31 -44 -32 0 16 0 32zm7 2l25 -18 -25 -19 0 37zm-54 -61c-6,0 -10,4 -10,9l0 66c0,5 5,10 10,10l121 0c5,0 10,-5 10,-10l0 -66c0,-5 -5,-9 -10,-9l-121 0zm43 82l0 -79 55 40 -55 39zm15 -29l14 -10 -14 -11 0 21z"/><path class="fil1" d="M-4154 2135c79,0 143,62 143,139 0,77 -64,139 -143,139 -79,0 -142,-62 -142,-139 0,-77 63,-139 142,-139zm55 110c39,7 65,20 65,34 0,15 -26,28 -65,35 3,-3 5,-8 5,-13l0 -44c0,-5 -2,-9 -5,-12zm-124 48c-24,-1 -56,-12 -56,-14 0,-2 32,-13 56,-15l0 1c3,3 4,10 4,14 0,4 -1,11 -4,14zm38 48c25,-2 46,-13 57,-26l19 0c7,0 13,-6 13,-14l0 -44c0,-8 -6,-14 -13,-14l-20 0c-10,-11 -31,-20 -56,-22 -24,-3 -48,1 -63,9 5,0 10,1 15,1 17,2 32,6 43,12 -7,0 -14,6 -14,14l0 44c0,8 7,14 14,14l0 0c-11,7 -26,12 -43,14 -5,1 -10,1 -15,1 15,10 39,14 63,11zm-36 -78l15 0 0 32 -15 0 0 0c2,-3 4,-9 4,-16 0,-7 -2,-13 -4,-16l0 0zm31 -15l81 0c5,0 8,4 8,9l0 44c0,5 -3,9 -8,9l-81 0c-5,0 -9,-4 -9,-9l0 -44c0,-5 4,-9 9,-9zm31 42l0 11 30 -22 -30 -21 0 11 0 21zm5 2l17 -13 -17 -12 0 25z"/><path class="fil1" d="M-2879 -652l211 0c19,0 35,15 35,35l0 114c0,19 -16,35 -35,35l-211 0c-19,0 -35,-16 -35,-35l0 -114c0,-20 16,-35 35,-35zm0 12l211 0c12,0 23,10 23,23l0 114c0,12 -11,23 -23,23l-211 0c-13,0 -23,-11 -23,-23l0 -114c0,-13 10,-23 23,-23zm82 108l0 27 76 -55 -76 -55 0 28 0 55zm12 4l44 -32 -44 -31 0 63z"/><path class="fil2" d="M-4003 -316c1,-3 2,-8 2,-11 0,0 0,0 0,0 0,4 -22,3 -25,3 -2,0 -24,1 -24,-3 0,-4 22,-4 24,-4 3,0 25,0 25,4 0,-4 -1,-10 -3,-14l-1 0 0 -1 16 0 0 30 -16 0 0 -1 1 -1c0,0 1,-1 1,-2 -1,3 -15,3 -17,3 -3,0 -18,0 -18,-3 0,-4 15,-4 18,-4 2,0 17,0 17,4 0,0 0,0 0,0zm109 -42c33,7 55,18 55,31 0,12 -22,23 -55,30 3,-2 5,-5 5,-9l0 -42c0,-4 -2,-8 -5,-10zm-126 39c9,0 16,1 16,3 0,1 -7,2 -16,2 -10,0 -17,-1 -17,-2 0,-2 7,-3 17,-3zm0 -21c9,0 16,1 16,3 0,1 -7,2 -16,2 -9,0 -17,-1 -17,-2 0,-2 8,-3 17,-3zm-6 11c13,0 24,1 24,2 0,1 -11,2 -24,2 -12,0 -23,-1 -23,-2 0,-1 11,-2 23,-2zm23 -12l13 0 0 28 -13 0 0 0c1,-3 3,-8 3,-14 0,-6 -2,-12 -3,-14l0 0zm29 71c24,-3 43,-13 52,-25l-56 0c-10,7 -24,12 -40,14 -5,0 -10,0 -14,0 14,9 35,13 58,11zm0 -110c23,2 42,10 52,20l-56 0c0,0 -1,0 -1,0 -10,-5 -24,-9 -39,-11 -5,0 -10,0 -14,0 14,-8 35,-11 58,-9zm-4 23l77 0c5,0 9,4 9,9l0 42c0,4 -4,8 -9,8l-77 0c-5,0 -9,-4 -9,-8l0 -42c0,-5 4,-9 9,-9zm30 38l0 8 21 -16 -21 -15 0 8 0 15zm54 -40c13,3 57,13 57,32 0,19 -43,28 -57,31l-5 1 4 -3c3,-2 5,-5 5,-8l0 -42c0,-4 -2,-7 -5,-9l-5 -3 6 1zm-126 18c2,0 17,0 17,4 0,3 -15,3 -17,3 -3,0 -18,0 -18,-3 0,-4 15,-4 18,-4zm46 72c-19,2 -42,-1 -59,-11l-3 -2 4 0c4,0 9,0 14,-1 13,-1 28,-5 39,-13l1 0 59 0 -2 2c-12,15 -34,23 -53,25zm0 -112c17,1 40,7 53,21l1 1 -58 0c0,0 -1,0 -1,0l0 0 -1 0c-11,-6 -25,-9 -38,-11 -5,0 -10,0 -14,0l-5 0 4 -2c17,-9 40,-11 59,-9zm-4 23l77 0c6,0 10,5 10,10l0 42c0,5 -4,9 -10,9l-77 0c-5,0 -10,-4 -10,-9l0 -42c0,-5 5,-10 10,-10zm31 45l18 -14 -18 -13 0 27z"/><path class="fil1" d="M-3633 2570c37,6 61,18 61,31 0,14 -24,25 -60,32 3,-3 5,-7 5,-11l0 -41c0,-4 -2,-9 -6,-11zm-130 40c10,0 17,1 17,2 0,1 -7,2 -17,2 -9,0 -16,-1 -16,-2 0,-1 7,-2 16,-2zm1 -21c9,0 16,1 16,2 0,1 -7,2 -16,2 -10,0 -17,-1 -17,-2 0,-1 7,-2 17,-2zm-6 10c13,0 24,1 24,2 0,2 -11,3 -24,3 -13,0 -23,-1 -23,-3 0,-1 10,-2 23,-2zm56 59c23,-2 43,-12 53,-24l17 0c7,0 13,-5 13,-12l0 -41c0,-7 -6,-12 -13,-12l-18 0c-9,-11 -29,-19 -52,-21 -23,-2 -44,1 -59,9 5,0 10,0 14,0 16,2 30,6 40,12 -7,0 -12,5 -12,12l0 41c0,7 5,12 12,12l0 0c-10,7 -24,12 -39,13 -5,1 -10,1 -15,1 15,9 36,13 59,10zm-33 -71l13 0 0 29 -13 0 0 0c2,-3 3,-9 3,-15 0,-6 -1,-11 -3,-14l0 0zm28 -14l75 0c5,0 8,4 8,8l0 41c0,4 -3,8 -8,8l-75 0c-4,0 -8,-4 -8,-8l0 -41c0,-4 4,-8 8,-8zm29 38l0 10 28 -19 -28 -20 0 10 0 19zm4 2l16 -11 -16 -12 0 23z"/><path class="fil1" d="M-3780 2886c54,0 98,43 98,96 0,54 -44,97 -98,97 -55,0 -98,-43 -98,-97 0,-53 43,-96 98,-96zm39 70c29,5 48,14 48,25 0,11 -19,20 -48,25 2,-2 4,-5 4,-9l0 -32c0,-4 -2,-7 -4,-9zm-104 32c7,0 13,0 13,1 0,2 -6,2 -13,2 -7,0 -13,0 -13,-2 0,-1 6,-1 13,-1zm0 -17c7,0 13,1 13,2 0,1 -6,2 -13,2 -7,0 -13,-1 -13,-2 0,-1 6,-2 13,-2zm-4 8c10,0 19,1 19,2 0,1 -9,2 -19,2 -10,0 -19,-1 -19,-2 0,-1 9,-2 19,-2zm44 47c19,-2 34,-9 42,-19l14 0c6,0 10,-4 10,-10l0 -32c0,-6 -4,-10 -10,-10l-14 0c-8,-8 -23,-15 -42,-17 -18,-1 -35,2 -47,8 4,-1 8,0 12,0 12,1 23,4 31,9 -5,0 -10,4 -10,10l0 32c0,6 5,10 10,10l1 0c-9,5 -20,9 -32,11 -4,0 -8,0 -12,0 12,7 29,11 47,8zm-26 -57l11 0 0 23 -11 0 0 0c1,-2 2,-6 2,-11 0,-5 -1,-9 -2,-11l0 -1zm22 -11l60 0c4,0 7,3 7,7l0 32c0,4 -3,7 -7,7l-60 0c-3,0 -6,-3 -6,-7l0 -32c0,-4 3,-7 6,-7zm24 31l0 8 21 -16 -21 -15 0 7 0 16zm3 1l13 -9 -13 -9 0 18z"/><path class="fil1" d="M-2943 -297l211 0c19,0 35,16 35,35l0 114c0,19 -16,35 -35,35l-211 0c-19,0 -35,-16 -35,-35l0 -114c0,-19 16,-35 35,-35zm0 12l211 0c13,0 23,10 23,23l0 114c0,12 -10,23 -23,23l-211 0c-12,0 -23,-11 -23,-23l0 -114c0,-13 11,-23 23,-23zm82 108l0 27 77 -55 -77 -54 0 27 0 55zm12 4l44 -32 -44 -31 0 63z"/><path class="fil1" d="M-3023 -246l39 0 0 80 -39 0 0 0c6,-7 10,-22 10,-40 0,-17 -4,-32 -10,-40l0 0z"/><path class="fil1" d="M-2929 -356c70,7 127,33 152,65l-155 0c-30,-19 -72,-33 -122,-38 -13,-1 -27,-2 -40,-1 41,-21 101,-32 165,-26z"/><path class="fil1" d="M-2929 -46c70,-7 127,-37 153,-74l-156 0c-29,22 -72,38 -121,43 -14,2 -28,2 -41,2 41,25 101,37 165,29z"/><path class="fil1" d="M-2706 -294c102,18 170,51 170,89 0,37 -68,70 -170,88 9,-7 15,-19 15,-31l0 -114c0,-13 -6,-24 -15,-32z"/><ellipse class="fil1" cx="-3085" cy="-206" rx="66" ry="7"/><ellipse class="fil1" cx="-3070" cy="-235" rx="46" ry="7"/><ellipse class="fil1" cx="-3071" cy="-176" rx="46" ry="7"/><path class="fil1" d="M-3563 30c131,26 218,70 218,119 0,50 -85,93 -216,119 12,-8 19,-22 19,-36l0 -164c0,-16 -8,-30 -21,-38zm-491 153c35,0 64,4 64,9 0,5 -29,9 -64,9 -36,0 -64,-4 -64,-9 0,-5 28,-9 64,-9zm0 -81c35,0 64,4 64,9 0,5 -29,9 -64,9 -35,0 -64,-4 -64,-9 0,-5 29,-9 64,-9zm-20 39c50,0 90,4 90,9 0,5 -40,9 -90,9 -51,0 -91,-4 -91,-9 0,-5 40,-9 91,-9zm86 -46l54 0 0 111 -54 0 0 0c7,-11 13,-32 13,-56 0,-24 -6,-45 -13,-55l0 0zm115 276c92,-10 167,-47 205,-94l-221 0c-40,26 -94,44 -156,51 -19,2 -38,3 -56,3 56,34 140,50 228,40zm-1 -428c91,9 165,40 203,80l-218 0c-1,0 -3,0 -4,0 -40,-21 -92,-37 -152,-43 -19,-2 -38,-2 -56,-2 56,-29 139,-44 227,-35zm-15 92l302 0c18,0 33,15 33,33l0 164c0,18 -15,33 -33,33l-302 0c-18,0 -33,-15 -33,-33l0 -164c0,-18 15,-33 33,-33zm117 147l0 30 83 -60 -83 -59 0 30 0 59z"/><path class="fil1" d="M428 12c229,0 415,180 415,403 0,223 -186,404 -415,404 -229,0 -415,-181 -415,-404 0,-223 186,-403 415,-403zm177 286c121,24 200,64 200,110 0,45 -78,85 -198,109 10,-8 17,-20 17,-34l0 -150c0,-15 -8,-28 -19,-35zm-453 141c33,0 59,3 59,8 0,5 -26,8 -59,8 -32,0 -59,-3 -59,-8 0,-5 27,-8 59,-8zm1 -75c32,0 59,4 59,8 0,5 -27,9 -59,9 -33,0 -59,-4 -59,-9 0,-4 26,-8 59,-8zm-19 36c46,0 83,4 83,9 0,4 -37,8 -83,8 -46,0 -84,-4 -84,-8 0,-5 38,-9 84,-9zm79 -43l50 0 0 103 -50 0 0 0c7,-10 12,-29 12,-51 0,-22 -5,-42 -12,-51l0 -1zm106 255c85,-9 154,-43 189,-87l-203 0c-38,24 -87,41 -144,48 -18,2 -35,2 -52,2 52,31 129,46 210,37zm0 -394c83,8 151,37 187,74l-202 0c-1,0 -2,0 -3,0 -37,-20 -85,-34 -140,-40 -18,-2 -35,-2 -52,-2 52,-27 129,-40 210,-32zm-15 84l279 0c16,0 30,14 30,31l0 150c0,17 -14,31 -30,31l-279 0c-16,0 -30,-14 -30,-31l0 -150c0,-17 14,-31 30,-31zm108 136l0 27 76 -54 -76 -55 0 27 0 55z"/></g><text x="0" y="862" fill="#000000" font-size="5px" font-weight="bold" font-family="'Helvetica Neue', Helvetica, Arial-Unicode, Arial, Sans-serif">Created by yogi pramana</text><text x="0" y="867" fill="#000000" font-size="5px" font-weight="bold" font-family="'Helvetica Neue', Helvetica, Arial-Unicode, Arial, Sans-serif">from the Noun Project</text></svg>